Coordinates
nRows=377
nColumns=2
inDegrees=yes
endheader
time	ankle_angle_r	
14.4042	  9.558263	
14.4375	  9.569804	
14.4708	  9.506226	
14.504	  9.558553	
14.5373	  9.575871	
14.5706	  9.521484	
14.6038	  9.536743	
14.6371	  9.567261	
14.6704	  9.535554	
14.7036	  9.543875	
14.7369	  9.544774	
14.7702	  9.520875	
14.8034	  9.521900	
14.8367	  9.506226	
14.87	  9.475708	
14.9032	  9.468161	
14.9365	  9.475708	
14.9698	  9.460449	
15.003	  9.498224	
15.0363	  9.483807	
15.0696	  9.492098	
15.1028	  9.536743	
15.1361	  9.507743	
15.1694	  9.407899	
15.2026	  9.462354	
15.2359	  9.410191	
15.2692	  9.490967	
15.3024	  9.460449	
15.3357	  9.432610	
15.369	  9.390349	
15.4022	  9.460449	
15.4355	  9.448448	
15.4687	  9.439287	
15.502	  9.485160	
15.5353	  9.424221	
15.5685	  9.445190	
15.6018	  9.500709	
15.6351	  9.445190	
15.6683	  9.445190	
15.7016	  9.455222	
15.7349	  9.414673	
15.7681	  9.445190	
15.8014	  9.490967	
15.8347	  9.450030	
15.8679	  9.445190	
15.9012	  9.460449	
15.9345	  9.362738	
15.9677	  9.419127	
16.001	  9.425575	
16.0343	  9.388415	
16.0675	  9.411904	
16.1008	  9.452316	
16.1341	  9.418643	
16.1673	  9.418312	
16.2006	  9.445190	
16.2339	  9.429932	
16.2671	  9.361730	
16.3004	  9.479195	
16.3337	  9.384155	
16.3669	  9.429932	
16.4002	  9.433128	
16.4335	  9.411573	
16.4667	  9.381152	
16.5	  9.460449	
16.5333	  9.435551	
16.5665	  9.411960	
16.5998	  9.447806	
16.6331	  9.432451	
16.6663	  9.460449	
16.6996	  9.490967	
16.7329	  9.414673	
16.7661	  9.392687	
16.7994	  9.462485	
16.8327	  9.414673	
16.8659	  9.420201	
16.8992	  9.443444	
16.9325	  9.429932	
16.9657	  9.399414	
16.999	  9.428475	
17.0323	  9.385514	
17.0655	  9.460449	
17.0988	  9.460449	
17.1321	  9.416812	
17.1653	  9.476681	
17.1986	  9.493595	
17.2319	  9.400193	
17.2651	  9.370262	
17.2984	  9.506226	
17.3317	  9.446658	
17.3649	  9.492145	
17.3982	  9.521189	
17.4315	  9.506226	
17.4647	  9.521484	
17.498	  9.475714	
17.5312	  9.399414	
17.5645	  9.414485	
17.5978	  9.475140	
17.631	  9.476089	
17.6643	  9.459971	
17.6976	  9.490393	
17.7308	  9.354309	
17.7641	  9.474940	
17.7974	  9.444326	
17.8306	  9.430893	
17.8639	  9.521484	
17.8972	  9.476862	
17.9304	  9.415924	
17.9637	  9.520137	
17.997	  9.503337	
18.0302	  9.440567	
18.0635	  9.490967	
18.0968	  9.475708	
18.13	  9.483032	
18.1633	  9.521484	
18.1966	  9.536743	
18.2298	  9.456206	
18.2631	  9.541179	
18.2964	  9.569575	
18.3296	  9.516662	
18.3629	  9.518976	
18.3962	  9.508830	
18.4294	  9.534041	
18.4627	  9.549204	
18.496	  9.542533	
18.5292	  9.496949	
18.5625	  9.539831	
18.5958	  9.558372	
18.629	  9.494248	
18.6623	  9.528240	
18.6956	  9.543693	
18.7288	  9.509797	
18.7621	  9.544665	
18.7954	  9.521484	
18.8286	  9.498690	
18.8619	  9.552002	
18.8952	  9.521484	
18.9284	  9.486815	
18.9617	  9.523219	
18.995	  9.510571	
19.0282	  9.527860	
19.0615	  9.526023	
19.0948	  9.484978	
19.128	  9.495699	
19.1613	  9.531915	
19.1946	  9.470783	
19.2278	  9.445190	
19.2611	  9.501107	
19.2944	  9.450019	
19.3276	  9.435244	
19.3609	  9.486526	
19.3942	  9.439685	
19.4274	  9.389757	
19.4607	  9.479569	
19.494	  9.460449	
19.5272	  9.384155	
19.5605	  9.502944	
19.5937	  9.420758	
19.627	  9.424142	
19.6603	  9.481987	
19.6935	  9.462957	
19.7268	  9.460449	
19.7601	  9.514915	
19.7933	  9.436597	
19.8266	  9.482471	
19.8599	  9.528343	
19.8931	  9.484012	
19.9264	  9.474554	
19.9597	  9.499077	
19.9929	  9.490967	
20.0262	  9.438422	
20.0595	  9.498405	
20.0927	  9.460449	
20.126	  9.475714	
20.1593	  9.521285	
20.1925	  9.475708	
20.2258	  9.475122	
20.2591	  9.514245	
20.2923	  9.467592	
20.3256	  9.490967	
20.3589	  9.543693	
20.3921	  9.499372	
20.4254	  9.504479	
20.4587	  9.512885	
20.4919	  9.506226	
20.5252	  9.512691	
20.5585	  9.521484	
20.5917	  9.466722	
20.625	  9.509496	
20.6583	  9.521484	
20.6915	  9.490967	
20.7248	  9.496853	
20.7581	  9.506226	
20.7913	  9.435624	
20.8246	  9.532677	
20.8579	  9.454949	
20.8911	  9.481111	
20.9244	  9.490967	
20.9577	  9.490967	
20.9909	  9.460449	
21.0242	  9.424705	
21.0575	  9.506226	
21.0907	  9.470885	
21.124	  9.500419	
21.1573	  9.445190	
21.1905	  9.393220	
21.2238	  9.501790	
21.2571	  9.506226	
21.2903	  9.436706	
21.3236	  9.506226	
21.3569	  9.536743	
21.3901	  9.487015	
21.4234	  9.506226	
21.4567	  9.548243	
21.4899	  9.475708	
21.5232	  9.490967	
21.5565	  9.487498	
21.5897	  9.414673	
21.623	  9.506226	
21.6562	  9.521484	
21.6895	  9.399414	
21.7228	  9.487981	
21.756	  9.488078	
21.7893	  9.475708	
21.8226	  9.429932	
21.8558	  9.501028	
21.8891	  9.427429	
21.9224	  9.460449	
21.9556	  9.488658	
21.9889	  9.447403	
22.0222	  9.475708	
22.0554	  9.471671	
22.0887	  9.460449	
22.122	  9.475708	
22.1552	  9.529829	
22.1885	  9.472445	
22.2218	  9.521484	
22.255	  9.459011	
22.2883	  9.447874	
22.3216	  9.473218	
22.3548	  9.460449	
22.3881	  9.428880	
22.4214	  9.459494	
22.4546	  9.429073	
22.4879	  9.460449	
22.5212	  9.459785	
22.5544	  9.414673	
22.5877	  9.429932	
22.621	  9.490592	
22.6542	  9.384434	
22.6875	  9.368715	
22.7208	  9.475708	
22.754	  9.399414	
22.7873	  9.429823	
22.8206	  9.429932	
22.8538	  9.384759	
22.8871	  9.445988	
22.9204	  9.520989	
22.9536	  9.399414	
22.9869	  9.445190	
23.0202	  9.523055	
23.0534	  9.459567	
23.0867	  9.414673	
23.12	  9.415748	
23.1532	  9.427588	
23.1865	  9.400682	
23.2198	  9.414673	
23.253	  9.429932	
23.2863	  9.353638	
23.3196	  9.477364	
23.3528	  9.475708	
23.3861	  9.445190	
23.4194	  9.475708	
23.4526	  9.460449	
23.4859	  9.418950	
23.5192	  9.506226	
23.5524	  9.493299	
23.5857	  9.473279	
23.619	  9.493492	
23.6522	  9.500981	
23.6855	  9.490967	
23.7187	  9.539558	
23.752	  9.460449	
23.7853	  9.512458	
23.8185	  9.524590	
23.8518	  9.497372	
23.8851	  9.502927	
23.9183	  9.506226	
23.9516	  9.452175	
23.9849	  9.533154	
24.0181	  9.521484	
24.0514	  9.471926	
24.0847	  9.548122	
24.1179	  9.548026	
24.1512	  9.513339	
24.1845	  9.543664	
24.2177	  9.528212	
24.251	  9.512759	
24.2843	  9.547543	
24.3175	  9.506226	
24.3508	  9.506226	
24.3841	  9.542503	
24.4173	  9.490967	
24.4506	  9.399414	
24.4839	  9.516445	
24.5171	  9.511362	
24.5504	  9.491406	
24.5837	  9.475708	
24.6169	  9.496393	
24.6502	  9.502012	
24.6835	  9.531124	
24.7167	  9.485250	
24.75	  9.445190	
24.7833	  9.533303	
24.8165	  9.500219	
24.8498	  9.451293	
24.8831	  9.451390	
24.9163	  9.499929	
24.9496	  9.454056	
24.9829	  9.473429	
25.0161	  9.460449	
25.0494	  9.421356	
25.0827	  9.482488	
25.1159	  9.499350	
25.1492	  9.445190	
25.1825	  9.445190	
25.2157	  9.520558	
25.249	  9.468445	
25.2823	  9.476247	
25.3155	  9.521138	
25.3488	  9.475708	
25.3821	  9.506185	
25.4153	  9.460449	
25.4486	  9.498383	
25.4819	  9.452509	
25.5151	  9.415487	
25.5484	  9.385163	
25.5817	  9.490967	
25.6149	  9.438258	
25.6482	  9.429932	
25.6815	  9.467188	
25.7147	  9.447165	
25.748	  9.499681	
25.7812	  9.521484	
25.8145	  9.475708	
25.8478	  9.463198	
25.881	  9.527643	
25.9143	  9.500164	
25.9476	  9.481673	
25.9808	  9.506226	
26.0141	  9.469936	
26.0474	  9.490967	
26.0806	  9.515906	
26.1139	  9.475708	
26.1472	  9.460449	
26.1804	  9.521484	
26.2137	  9.490967	
26.247	  9.460449	
26.2802	  9.526747	
26.3135	  9.490967	
26.3468	  9.465254	
26.38	  9.501517	
26.4133	  9.475708	
26.4466	  9.480223	
26.4798	  9.519481	
26.5131	  9.464770	
26.5464	  9.475708	
26.5796	  9.521484	
26.6129	  9.490967	
26.6462	  9.464384	
26.6794	  9.433770	
26.7127	  9.483191	
26.746	  9.445190	
26.7792	  9.506226	
26.8125	  9.384155	
26.8458	  9.433287	
26.879	  9.502968	
26.9123	  9.460449	
